<?xml version="1.0" encoding="UTF-8"?>
<svg id="Camada_2" data-name="Camada 2" xmlns="http://www.w3.org/2000/svg" viewBox="0 0 1080 1079">
  <defs>
    <style>
      .cls-1 {
        fill: #fff;
      }

      .cls-2 {
        fill: #204796;
      }
    </style>
  </defs>
  <g id="Camada_1-2" data-name="Camada 1">
    <rect class="cls-2" width="1080" height="1079"/>
    <path class="cls-1" d="M766.73,740.75l-137.15-203.72c-1.05-1.56-1.03-3.65.04-5.19l134.72-193.19c6.59-9.45,7.37-21.67,2.04-31.88-5.33-10.21-15.79-16.55-27.31-16.55h-117.01l-82.06,118.13h0s-82.06-118.13-82.06-118.13h-117.01c-11.52,0-21.99,6.35-27.32,16.56-5.33,10.21-4.54,22.43,2.05,31.88l134.72,193.18c1.08,1.54,1.09,3.63.04,5.19l-137.14,203.73c-6.38,9.47-7,21.6-1.64,31.68,5.36,10.08,15.79,16.34,27.2,16.34h111.05c30.04-43.2,60.07-86.39,90.11-129.59l90.11,129.59h111.05c11.42,0,21.84-6.26,27.2-16.34,5.36-10.08,4.74-22.22-1.64-31.69ZM635.78,316.45h103.29c2.42,0,3.58,1.54,4.06,2.46.48.92,1.08,2.76-.3,4.74l-131.08,187.97-55.77-80.28,79.81-114.89ZM436.18,762.54h-97.34c-2.4,0-3.56-1.52-4.05-2.43-.48-.91-1.09-2.73.24-4.71l137.14-203.72c7.06-10.48,6.95-24.48-.28-34.85l-134.72-193.18c-1.38-1.98-.79-3.82-.31-4.74.48-.92,1.64-2.46,4.06-2.46h103.29l151,217.37-159.04,228.72ZM745.21,760.11c-.48.91-1.65,2.43-4.05,2.43h-97.34c-3.14-4.52-66.86-96.15-87.84-126.33,18.42-26.49,36.84-52.98,55.26-79.46l133.74,198.65c1.34,1.98.72,3.8.24,4.71Z"/>
  </g>
</svg>